<?xml version="1.0" encoding="utf-8"?>
<!-- Generator: Adobe Illustrator 27.5.0, SVG Export Plug-In . SVG Version: 6.00 Build 0)  -->
<svg version="1.1" xmlns="http://www.w3.org/2000/svg" xmlns:xlink="http://www.w3.org/1999/xlink" x="0px" y="0px"
	 viewBox="0 0 500 500" style="enable-background:new 0 0 500 500;" xml:space="preserve">
<g id="BACKGROUND">
	<rect style="fill:#D3F4FF;" width="500" height="500"/>
</g>
<g id="OBJECTS">
	<g>
		
			<ellipse transform="matrix(0.9739 -0.2268 0.2268 0.9739 -21.803 81.8931)" style="fill:#ADE3F8;" cx="345.488" cy="135.831" rx="74.531" ry="74.531"/>
		<path style="fill:#F1956C;" d="M317.868,81.526c0,0-2.312-2.639-3.912-0.968c-1.6,1.672-0.267,6.774,4.445,7.038l0.8-2.111
			L317.868,81.526z"/>
		<path style="fill:#B46D4F;" d="M317.636,83.604c0,0-2.192-2.035-2.583-0.704c-0.391,1.331,1.409,2.74,2.583,2.661V83.604z"/>
		<path style="fill:#FFC55C;" d="M355.836,89.136c0,0,5.218-3.966,6.053-11.898c0.835-7.932-1.252-14.194-2.714-16.908
			c-1.461-2.714-5.219-9.185-11.689-8.767c-6.471,0.417-1.879,21.083-1.879,21.083L355.836,89.136z"/>
		<g>
			<defs>
				<path id="SVGID_1_" d="M355.836,89.136c0,0,5.218-3.966,6.053-11.898c0.835-7.932-1.252-14.194-2.714-16.908
					c-1.461-2.714-5.219-9.185-11.689-8.767c-6.471,0.417-1.879,21.083-1.879,21.083L355.836,89.136z"/>
			</defs>
			<clipPath id="SVGID_00000111160259820879536410000001836663440076673188_">
				<use xlink:href="#SVGID_1_"  style="overflow:visible;"/>
			</clipPath>
			<g style="clip-path:url(#SVGID_00000111160259820879536410000001836663440076673188_);">
				<path style="fill:#BF953F;" d="M360.317,83.849c-0.813-21.488-12.365-28.842-12.482-28.914l0.552-0.901
					c0.496,0.303,12.15,7.681,12.987,29.774L360.317,83.849z"/>
				<path style="fill:#BF953F;" d="M358.033,90.003l-1.055-0.065c1.222-19.962-9.084-28.13-9.188-28.21l0.644-0.838
					C348.878,61.232,359.288,69.486,358.033,90.003z"/>
			</g>
		</g>
		<path style="fill:#F1956C;" d="M355.836,89.136c0,0,2.087,10.646,2.087,12.107s-8.141,7.932-8.141,7.932l-17.325,2.505
			l-5.01-2.087l-2.296-2.714l-0.835-4.175L355.836,89.136z"/>
		<path style="fill:#F1956C;" d="M315.757,73.063c0,0,2.087,14.194,1.879,16.908c-0.209,2.714,5.01,8.141,6.262,8.558
			c1.253,0.418,20.665-1.044,20.665-1.044l10.228-11.898l0.417-1.461c0,0,5.845-2.296,4.592-6.68
			c-1.252-4.384-6.68-1.252-6.68-1.252s-1.67,0.417-1.67-0.417c0-0.835-0.835-6.888-3.757-10.437
			C344.772,61.791,315.757,73.063,315.757,73.063z"/>
		<path style="fill:#ED795A;" d="M324.733,92.058c0-1.614-2.22-2.922-4.958-2.922c-0.764,0-1.48,0.111-2.126,0.293
			c0.001,0.21-0.002,0.396-0.013,0.542c-0.101,1.319,1.081,3.276,2.465,4.99C322.684,94.861,324.733,93.606,324.733,92.058z"/>
		<path style="fill:#ED795A;" d="M338.276,90.998c0.267,1.592,2.673,2.514,5.373,2.06c2.7-0.454,4.672-2.112,4.405-3.704
			c-0.267-1.592-2.673-2.514-5.373-2.06C339.981,87.748,338.009,89.406,338.276,90.998z"/>
		<path style="fill:#FFC55C;" d="M347.486,51.562c0,0-0.209-2.505-2.505-2.296c-2.296,0.209-6.68,2.505-10.02,1.67
			c-3.34-0.835-7.932-1.044-13.359,3.549c-5.427,4.592-8.976,12.107-7.932,15.864s6.471,6.053,15.447,5.636
			c8.976-0.418,17.952-5.218,19.413-11.272C349.991,58.66,348.321,52.189,347.486,51.562z"/>
		<g>
			<defs>
				<path id="SVGID_00000172412656073061381960000011520168139471938964_" d="M347.486,51.562c0,0-0.209-2.505-2.505-2.296
					c-2.296,0.209-6.68,2.505-10.02,1.67c-3.34-0.835-7.932-1.044-13.359,3.549c-5.427,4.592-8.976,12.107-7.932,15.864
					s6.471,6.053,15.447,5.636c8.976-0.418,17.952-5.218,19.413-11.272C349.991,58.66,348.321,52.189,347.486,51.562z"/>
			</defs>
			<clipPath id="SVGID_00000134936798037989456390000006271633060521999785_">
				<use xlink:href="#SVGID_00000172412656073061381960000011520168139471938964_"  style="overflow:visible;"/>
			</clipPath>
			<g style="clip-path:url(#SVGID_00000134936798037989456390000006271633060521999785_);">
				<path style="fill:#BF953F;" d="M328.18,72.684c-4.099,0-6.497-1.636-8.274-2.847c-0.386-0.263-0.74-0.506-1.075-0.701
					c-2.234-1.302-6.355,0.627-6.395,0.648c-0.266,0.126-0.58,0.012-0.704-0.25c-0.126-0.264-0.013-0.578,0.25-0.704
					c0.189-0.09,4.67-2.188,7.382-0.605c0.355,0.206,0.73,0.462,1.138,0.74c2.412,1.645,6.056,4.13,14.087,1.509
					c9.038-2.947,13.581-9.442,14.267-11.953c0.076-0.28,0.367-0.449,0.649-0.37c0.282,0.077,0.447,0.367,0.371,0.649
					c-0.763,2.794-5.421,9.569-14.958,12.679C332.253,72.346,330.04,72.684,328.18,72.684z"/>
				<path style="fill:#BF953F;" d="M329.89,68.553c-2.936,0-4.855-1.121-7.114-2.44c-0.517-0.301-1.057-0.617-1.638-0.936
					c-3.802-2.093-8.749,1.988-8.799,2.029c-0.224,0.186-0.557,0.157-0.744-0.065c-0.188-0.223-0.159-0.557,0.065-0.744
					c0.224-0.188,5.545-4.59,9.988-2.146c0.589,0.324,1.137,0.644,1.66,0.95c3.192,1.864,5.302,3.094,10.473,1.716
					c6.275-1.673,14.945-9.514,15.284-10.698c0.079-0.28,0.368-0.443,0.653-0.363c0.28,0.081,0.443,0.373,0.362,0.653
					c-0.523,1.835-9.716,9.746-16.027,11.428C332.439,68.368,331.081,68.553,329.89,68.553z"/>
				<path style="fill:#BF953F;" d="M312.835,63.989c-0.143,0-0.287-0.058-0.391-0.173c-0.196-0.216-0.181-0.55,0.036-0.747
					c0.197-0.179,4.879-4.368,9.922-2.613c4.954,1.722,9.893,3.006,15.86-0.176c5.488-2.927,8.896-6.513,9.115-9.591
					c0.022-0.292,0.303-0.511,0.564-0.489c0.291,0.021,0.511,0.273,0.49,0.564c-0.25,3.494-3.775,7.303-9.672,10.449
					c-6.336,3.38-11.727,1.973-16.704,0.241c-4.448-1.545-8.821,2.358-8.865,2.397C313.089,63.944,312.962,63.989,312.835,63.989z"
					/>
				<path style="fill:#BF953F;" d="M314.714,59.813c-0.13,0-0.26-0.048-0.362-0.144c-0.212-0.2-0.222-0.533-0.024-0.745
					c0.136-0.145,3.403-3.532,10.484-2.457c6.726,1.019,9.985,0.835,14.879-2.222c4.763-2.978,5.599-6.72,5.607-6.758
					c0.06-0.286,0.345-0.467,0.625-0.408c0.286,0.06,0.468,0.341,0.409,0.626c-0.036,0.171-0.94,4.223-6.082,7.436
					c-5.175,3.235-8.588,3.432-15.598,2.37c-6.494-0.979-9.525,2.106-9.555,2.137C314.994,59.758,314.855,59.813,314.714,59.813z"/>
				<path style="fill:#BF953F;" d="M318.889,55.639c-0.172,0-0.343-0.085-0.444-0.241c-0.158-0.245-0.089-0.572,0.157-0.731
					c0.152-0.097,3.776-2.394,9.549-1.54c5.271,0.779,10.954-2.471,12.408-4.962c0.147-0.252,0.472-0.336,0.722-0.19
					c0.252,0.147,0.337,0.471,0.19,0.723c-1.635,2.804-7.698,6.331-13.475,5.475c-5.38-0.794-8.786,1.36-8.82,1.382
					C319.087,55.612,318.988,55.639,318.889,55.639z"/>
			</g>
		</g>
		<path style="fill:none;stroke:#333333;stroke-width:0.5;stroke-miterlimit:10;" d="M317.636,89.971"/>
		<path style="fill:#FFFFFF;" d="M317.636,89.971c0,0,4.175,5.427,13.777,4.592c9.602-0.835,16.699-5.427,19.83-11.898
			c0,0,1.252-3.549,0.209-6.888c0,0,0.835-0.209,1.67,0.417c0,0-0.835,6.471,2.087,7.932l1.044-0.626c0,0,1.67,4.592-0.209,11.481
			c-1.879,6.888-8.767,13.151-18.369,13.568c-9.602,0.418-14.194-1.879-17.534-8.35C316.801,93.728,317.636,89.971,317.636,89.971z"
			/>
		<circle style="fill:#653726;" cx="321.654" cy="85.535" r="1.096"/>
		<path style="fill:#653726;" d="M339.151,84.236c0.1,0.597,0.666,0.999,1.262,0.899c0.597-0.1,0.999-0.665,0.899-1.262
			c-0.1-0.597-0.665-0.999-1.262-0.899C339.453,83.074,339.051,83.639,339.151,84.236z"/>
		<g>
			<path style="fill:#B46D4F;" d="M330.667,93.789c-0.486,0-0.98-0.092-1.346-0.378c-0.239-0.186-0.524-0.537-0.524-1.144
				c0-1.245,0.2-8.874,0.208-9.198c0.007-0.29,0.246-0.521,0.542-0.514c0.292,0.008,0.522,0.251,0.515,0.542
				c-0.002,0.079-0.208,7.939-0.208,9.17c0,0.193,0.06,0.266,0.118,0.311c0.258,0.202,0.956,0.205,1.731,0.012
				c0.283-0.072,0.57,0.101,0.641,0.384c0.07,0.283-0.102,0.57-0.385,0.64C331.624,93.698,331.149,93.789,330.667,93.789z"/>
			<path style="fill:#B46D4F;" d="M319.305,82.46c-0.071,0-0.145-0.015-0.214-0.046c-0.264-0.118-0.385-0.425-0.269-0.691
				c0.046-0.108,1.21-2.661,6.217-3.75c0.29-0.061,0.567,0.12,0.629,0.404c0.062,0.285-0.119,0.567-0.404,0.629
				c-4.427,0.962-5.466,3.122-5.476,3.144C319.699,82.344,319.506,82.46,319.305,82.46z"/>
			<path style="fill:#B46D4F;" d="M341.951,80.643c-0.171,0-0.339-0.083-0.441-0.236c-0.024-0.035-1.412-1.977-5.918-2.192
				c-0.292-0.014-0.517-0.262-0.503-0.553c0.013-0.291,0.26-0.527,0.552-0.503c5.119,0.244,6.688,2.569,6.752,2.668
				c0.159,0.245,0.09,0.572-0.155,0.731C342.15,80.615,342.05,80.643,341.951,80.643z"/>
		</g>
		<g>
			<path style="fill:#D3F4FF;" d="M330.081,98.863c-0.148,0-0.292-0.001-0.434-0.003c-4.906-0.066-7.853-1.166-7.977-1.213
				c-0.204-0.078-0.306-0.306-0.229-0.511c0.077-0.205,0.314-0.305,0.511-0.23c0.117,0.044,11.819,4.316,27.016-3.944
				c0.193-0.104,0.434-0.034,0.537,0.159c0.105,0.192,0.034,0.433-0.159,0.538C341.493,97.927,334.605,98.863,330.081,98.863z"/>
			<path style="fill:#D3F4FF;" d="M331.713,102.189c-0.471,0-0.921-0.01-1.349-0.029c-4.878-0.209-7.949-1.438-8.078-1.49
				c-0.202-0.082-0.299-0.313-0.218-0.516c0.084-0.202,0.316-0.299,0.516-0.218c0.121,0.049,12.312,4.832,26.266-3.314
				c0.189-0.111,0.43-0.047,0.543,0.143c0.11,0.189,0.046,0.431-0.142,0.542C342.494,101.252,336.182,102.189,331.713,102.189z"/>
			<path style="fill:#D3F4FF;" d="M332.896,105.259c-6.015,0-9.757-2.071-9.822-2.107c-0.19-0.108-0.255-0.35-0.147-0.54
				c0.107-0.19,0.349-0.257,0.54-0.148c0.108,0.062,10.951,6.027,25.481-2.915c0.185-0.113,0.43-0.056,0.545,0.13
				c0.114,0.187,0.057,0.431-0.13,0.545C343.014,104.131,337.336,105.259,332.896,105.259z"/>
		</g>
		<g>
			<path style="fill:#542D21;" d="M320.871,94.988c-4.781,0-8.67-3.89-8.67-8.671c0-4.781,3.889-8.67,8.67-8.67
				c4.781,0,8.671,3.89,8.671,8.67C329.542,91.099,325.652,94.988,320.871,94.988z M320.871,78.915c-4.082,0-7.403,3.32-7.403,7.402
				c0,4.082,3.321,7.403,7.403,7.403c4.083,0,7.404-3.321,7.404-7.403C328.275,82.236,324.954,78.915,320.871,78.915z"/>
			<path style="fill:#542D21;" d="M341.745,93.214c-4.781,0-8.67-3.89-8.67-8.67c0-4.781,3.889-8.671,8.67-8.671
				c4.781,0,8.67,3.89,8.67,8.671C350.415,89.324,346.527,93.214,341.745,93.214z M341.745,77.141c-4.082,0-7.403,3.321-7.403,7.403
				c0,4.082,3.321,7.402,7.403,7.402s7.403-3.32,7.403-7.402C349.148,80.461,345.827,77.141,341.745,77.141z"/>
			<path style="fill:#542D21;" d="M333.566,85.161c-3.703-0.861-4.435-0.07-4.443-0.062l-1.095-0.631
				c0.198-0.398,1.206-1.615,5.825-0.542L333.566,85.161z"/>
		</g>
		<path style="fill:#B46D4F;" d="M354.974,78.594c0,0-0.156,2.192,0.704,3.288c0,0,2.583-1.174,2.035-2.661
			C357.166,77.733,354.974,78.594,354.974,78.594z"/>
		<path style="fill:#A553A5;" d="M368.151,106.252l-8.141-2.087l-1.879-5.01c0,0-6.053,9.185-18.578,10.437
			c-12.524,1.252-14.403-2.714-14.403-2.714l0.626,3.549l-6.68,5.218l6.471,50.724l10.854,64.918l23.588-1.461
			c0,0,5.427-32.355,5.427-33.19c0-0.835,3.757-82.661,3.757-82.661L368.151,106.252z"/>
		<path style="fill:#734772;" d="M336.335,115.843c-7.695,0-10.531-3.541-10.663-3.712c-0.133-0.173-0.101-0.42,0.071-0.555
			c0.171-0.133,0.42-0.104,0.555,0.069c0.034,0.044,3.571,4.394,13.416,3.19c10.012-1.226,17.04-7.13,19.358-10.079
			c0.135-0.173,0.385-0.201,0.556-0.067c0.172,0.135,0.202,0.384,0.067,0.556c-2.388,3.04-9.617,9.12-19.885,10.377
			C338.556,115.775,337.399,115.843,336.335,115.843z"/>
		<path style="fill:#FFFFFF;" d="M300.728,231.497h103.953c0,0,2.922-28.806,3.131-40.913c0,0,15.447-12.107,16.282-27.971
			c0.835-15.864-8.976-28.597-13.151-34.025c-4.175-5.427-16.073-17.534-22.753-18.995c-6.68-1.461-16.699-1.461-16.699-1.461
			l-13.359,77.86l-12.942,40.913l-11.063-1.252l-14.403-84.749l-4.801-23.588c0,0-11.063,4.592-17.743,9.185
			c-6.68,4.592-21.709,17.117-24.84,29.432c-3.131,12.316,0.417,24.005,5.219,27.554c4.801,3.549,19.413,15.655,19.413,15.655
			l3.549,10.228L300.728,231.497z"/>
		<path style="fill:#FFFFFF;" d="M318.68,114.393c0,0-4.801,2.714-7.306,5.636c-2.505,2.922-10.437,13.151-8.558,15.447
			c1.879,2.296,13.777,12.942,13.777,12.942s-6.68,13.568-6.68,16.282c0,2.714,21.083,66.588,21.083,66.588h10.02
			c0,0-12.107-78.278-15.238-91.846c-3.131-13.568-5.427-25.675-5.427-25.675S319.306,113.976,318.68,114.393z"/>
		<path style="fill:#CCCCCC;" d="M330.995,231.816c-0.222,0-0.428-0.141-0.501-0.363c-2.161-6.546-21.11-64.034-21.11-66.753
			c0-2.593,5.35-13.684,6.558-16.156c-1.897-1.701-11.797-10.609-13.536-12.733c-2.537-3.102,8.454-15.996,8.566-16.125
			c0.192-0.222,0.525-0.247,0.745-0.057c0.222,0.19,0.248,0.523,0.058,0.745c-4.315,5.034-9.842,13.19-8.551,14.769
			c1.832,2.238,13.602,12.776,13.72,12.882c0.177,0.158,0.227,0.414,0.122,0.627c-1.842,3.744-6.625,13.924-6.625,16.049
			c0.002,1.936,12.593,40.783,21.056,66.422c0.092,0.277-0.059,0.576-0.337,0.667C331.105,231.808,331.05,231.816,330.995,231.816z"
			/>
		<path style="fill:#FFFFFF;" d="M365.438,105c0,0-5.219,38.826-7.097,51.976c-1.879,13.151-17.534,65.753-18.16,68.258
			c-0.626,2.505-1.253,6.471-1.253,6.471l5.636-0.209c0,0,28.18-67.006,29.015-69.928c0.835-2.922-4.175-14.612-4.175-14.612
			s16.073-15.864,15.864-18.578c-0.209-2.714-12.316-21.5-13.151-21.918C371.282,106.044,365.438,105,365.438,105z"/>
		<path style="fill:#CCCCCC;" d="M344.564,232.025c-0.068,0-0.138-0.013-0.204-0.041c-0.269-0.113-0.396-0.423-0.283-0.692
			c0.282-0.67,28.177-67.01,28.994-69.868c0.642-2.25-2.779-11.056-4.153-14.259c-0.086-0.2-0.04-0.431,0.115-0.584
			c6.602-6.516,15.839-16.458,15.709-18.161c-0.185-2.394-11.703-20.509-12.915-21.519c-0.261-0.131-0.34-0.431-0.208-0.692
			c0.129-0.262,0.475-0.35,0.736-0.22c0.898,0.449,6.962,10.194,7.023,10.292c2.341,3.772,6.288,10.356,6.418,12.058
			c0.211,2.736-12.552,15.562-15.764,18.741c0.922,2.184,4.864,11.804,4.056,14.634c-0.834,2.919-27.885,67.25-29.035,69.988
			C344.966,231.904,344.77,232.025,344.564,232.025z"/>
		<path style="fill:#CCCCCC;" d="M387.981,157.296c-0.16,0-0.319-0.073-0.423-0.212l-2.505-3.34
			c-0.174-0.233-0.127-0.564,0.106-0.739c0.232-0.174,0.564-0.129,0.74,0.106l2.505,3.34c0.174,0.233,0.127,0.564-0.106,0.739
			C388.203,157.262,388.092,157.296,387.981,157.296z"/>
		<path style="fill:#A553A5;" d="M380.251,168.457h-17.729c-1.157,0-2.094-0.938-2.094-2.094v-9.797
			c0-1.157,0.938-2.094,2.094-2.094h17.729c1.157,0,2.094,0.938,2.094,2.094v9.797C382.346,167.519,381.408,168.457,380.251,168.457
			z"/>
		<path style="fill:#333333;" d="M375.837,151.132h-2.457v-3.309c0-0.248-0.201-0.449-0.449-0.449h-3.915
			c-0.248,0-0.449,0.201-0.449,0.449v3.309h-2.468c-0.366,0-0.663,0.297-0.663,0.663v3.683c0,0.367,0.297,0.663,0.663,0.663h9.736
			c0.366,0,0.663-0.297,0.663-0.663v-3.683C376.501,151.428,376.204,151.132,375.837,151.132z"/>
		<path style="fill:#FFC55C;" d="M369.612,162.09c0,1.902-1.542,3.444-3.444,3.444c-1.902,0-3.444-1.542-3.444-3.444
			c0-1.902,1.542-3.444,3.444-3.444C368.07,158.646,369.612,160.188,369.612,162.09z"/>
		<g>
			<path style="fill:#FFFFFF;" d="M379.319,161.001h-7.358c-0.292,0-0.528-0.236-0.528-0.528c0-0.292,0.236-0.528,0.528-0.528h7.358
				c0.292,0,0.528,0.236,0.528,0.528C379.847,160.765,379.611,161.001,379.319,161.001z"/>
			<path style="fill:#FFFFFF;" d="M376.501,163.663h-4.384c-0.292,0-0.528-0.236-0.528-0.528c0-0.292,0.236-0.528,0.528-0.528h4.384
				c0.292,0,0.528,0.236,0.528,0.528C377.03,163.426,376.793,163.663,376.501,163.663z"/>
		</g>
		<path style="fill:#FFFFFF;" d="M301.981,156.141c0,0,5.661,4.682,11.078,11.661c3.945,5.082,7.762,11.383,9.169,17.98
			l-25.258,13.359l-15.864-22.335L301.981,156.141z"/>
		<path style="fill:#CCCCCC;" d="M322.227,186.311c-0.243,0-0.462-0.17-0.516-0.418c-1.187-5.566-4.238-11.543-9.069-17.766
			c-5.317-6.848-10.942-11.532-10.998-11.578c-0.225-0.186-0.257-0.519-0.07-0.744c0.187-0.224,0.52-0.256,0.743-0.07
			c0.058,0.047,5.768,4.8,11.159,11.744c4.93,6.35,8.049,12.471,9.27,18.194c0.061,0.285-0.122,0.566-0.407,0.627
			C322.301,186.307,322.264,186.311,322.227,186.311z"/>
		<path style="fill:#CCCCCC;" d="M288.413,192.156c-0.043,0-0.087-0.005-0.131-0.016c-0.283-0.072-0.453-0.36-0.381-0.643
			c4.409-17.218,19.637-21.422,19.79-21.462c0.286-0.076,0.571,0.094,0.646,0.376c0.074,0.282-0.094,0.571-0.376,0.646
			c-0.148,0.039-14.785,4.103-19.036,20.703C288.864,191.997,288.649,192.156,288.413,192.156z"/>
		<path style="fill:#FFFFFF;" d="M392.156,153.01c0,0-6.295,5.048-13.504,11.808c-5.984,5.611-12.598,12.4-16.763,18.46
			l21.083,21.709c0,0,19.413-11.481,24.84-14.403l0.418-23.588L392.156,153.01z"/>
		<path style="fill:#CCCCCC;" d="M361.889,183.806c-0.103,0-0.207-0.03-0.299-0.093c-0.241-0.166-0.301-0.494-0.136-0.735
			c3.542-5.152,9.207-11.391,16.837-18.546c7.141-6.696,13.473-11.784,13.536-11.835c0.226-0.181,0.559-0.146,0.742,0.081
			c0.183,0.228,0.147,0.56-0.081,0.743c-0.063,0.05-6.363,5.115-13.474,11.781c-7.575,7.103-13.19,13.285-16.689,18.373
			C362.223,183.726,362.056,183.806,361.889,183.806z"/>
		<path style="fill:#CCCCCC;" d="M394.661,196.748c-0.223,0-0.43-0.142-0.502-0.366c-3.506-10.834-8.944-16.744-12.891-19.794
			c-4.27-3.301-7.762-4.058-7.797-4.065c-0.285-0.06-0.469-0.339-0.41-0.625c0.059-0.285,0.336-0.467,0.623-0.41
			c0.15,0.031,3.719,0.795,8.175,4.221c4.083,3.14,9.705,9.22,13.305,20.348c0.09,0.278-0.062,0.575-0.34,0.665
			C394.77,196.74,394.715,196.748,394.661,196.748z"/>
		<path style="fill:#CCCCCC;" d="M382.702,222.846c-0.204,0-0.484-0.074-0.745-0.39c-0.666-0.81-0.972-3.142-0.367-4.608
			c0.401-0.971,1.058-1.232,1.539-1.28c2.181-0.218,15.826-0.621,20.143-0.209c0.29,0.027,0.503,0.285,0.476,0.576
			c-0.029,0.292-0.286,0.513-0.577,0.476c-4.265-0.405-17.776-0.007-19.936,0.209c-0.348,0.035-0.606,0.345-0.766,0.923
			c-0.348,1.256,0.011,2.903,0.295,3.235c1.415-0.187,9.321-0.015,10.242,0.006c0.291,0.007,0.522,0.249,0.516,0.54
			c-0.006,0.292-0.242,0.511-0.541,0.517c-3.669-0.083-9.387-0.155-10.113-0.01C382.821,222.839,382.764,222.846,382.702,222.846z"
			/>
		<ellipse style="fill:#D3F4FF;" cx="336.017" cy="228.261" rx="27.333" ry="6.993"/>
		<path style="fill:#599DB7;" d="M363.35,235.776c0,3.862-12.237,6.993-27.333,6.993c-15.095,0-27.333-3.131-27.333-6.993v-7.515
			c0,3.862,12.237,6.993,27.333,6.993c15.095,0,27.333-3.131,27.333-6.993V235.776z"/>
		<path style="fill:#E7A4E4;" d="M344.564,228.157c0,1.614-4.206,2.922-9.393,2.922s-9.393-1.308-9.393-2.922
			c0-1.614,4.205-2.922,9.393-2.922S344.564,226.543,344.564,228.157z"/>
		<path style="fill:#76D1F4;" d="M361.263,221.059c0,0,7.515,1.044,11.898-1.879c4.384-2.922,12.107-15.656,12.316-19.83
			c0.209-4.175-4.175-15.238-12.316-16.282c-8.141-1.044-10.02-1.461-16.073,0.209c-6.053,1.67-9.393,6.888-13.359,8.767
			c-3.966,1.879-8.35,7.723-3.966,10.228C344.146,204.778,361.263,221.059,361.263,221.059z"/>
		<path style="fill:#333333;" d="M337.049,226.069l9.602-51.141l1.767-1.276c1.004-0.725,2.423-0.301,2.864,0.857l0.796,2.089
			l-13.359,50.515C338.719,227.113,337.258,228.992,337.049,226.069z"/>
		<path style="fill:#76D1F4;" d="M348.321,193.297c0,0-7.097,9.811-9.393,11.272c-2.296,1.461-3.131,6.262-0.417,7.723
			c2.714,1.461,5.01,1.044,5.01,1.044s-0.209,5.01,4.592,5.427c4.801,0.417,5.427,0.209,5.427,0.209s0.626,2.087,3.966,2.296
			c3.34,0.209,3.757-0.209,3.757-0.209l3.779-1.619l3.527-1.512l5.636-14.612l-18.369-13.777L348.321,193.297z"/>
		<path style="fill:#76D1F4;" d="M329.326,202.273c0,0,3.757-2.714,1.461-8.976c-2.296-6.262-8.767-9.393-12.733-11.063
			c-3.966-1.67-12.733-5.01-17.743,2.922c-5.01,7.932-6.471,18.578-4.801,22.335c1.67,3.757,7.723,8.35,13.359,8.558
			c5.636,0.209,10.646-1.252,11.69-2.087C321.602,213.127,329.326,202.273,329.326,202.273z"/>
		<path style="fill:#333333;" d="M329.117,224.191c0,0,1.461,2.296,2.505-0.417l-7.723-46.758l-1.341-1.722
			c-0.788-1.011-2.378-0.777-2.841,0.419l-0.828,2.138L329.117,224.191z"/>
		<path style="fill:#76D1F4;" d="M307.773,211.04c0.925,0.42,4.286,1.382,7.201,2.183c2.515,0.691,4.697,1.262,4.697,1.262
			s2.661,0.626,5.636,0.313c2.975-0.313,4.07-2.661,4.07-2.661s1.566-0.157,2.975-0.626s2.348-2.818,2.035-4.383
			c-0.224-1.122-3.184-2.807-5.476-4.306c-0.906-0.592-1.707-1.155-2.195-1.643c-1.722-1.722-7.201-8.298-7.201-8.298
			s-7.045-1.566-7.515-1.252c-0.47,0.313-7.202,12.837-7.202,12.837L307.773,211.04z"/>
		<g>
			<path style="fill:#599DB7;" d="M361.263,221.456c-0.154,0-0.3-0.09-0.364-0.24c-0.086-0.201,0.007-0.434,0.209-0.52l7.305-3.131
				c0.198-0.084,0.435,0.006,0.52,0.208c0.086,0.201-0.007,0.434-0.208,0.521l-7.306,3.131
				C361.368,221.445,361.315,221.456,361.263,221.456z"/>
			<path style="fill:#599DB7;" d="M343.52,213.732c-0.184,0-0.349-0.128-0.388-0.315c-0.044-0.214,0.092-0.424,0.306-0.469
				c3.834-0.807,13.315-7.996,13.41-8.068c0.177-0.133,0.423-0.1,0.556,0.075c0.132,0.174,0.098,0.423-0.076,0.555
				c-0.394,0.301-9.719,7.37-13.727,8.213C343.573,213.73,343.546,213.732,343.52,213.732z"/>
			<path style="fill:#599DB7;" d="M353.539,219.368c-0.177,0-0.34-0.12-0.385-0.3c-0.053-0.212,0.076-0.427,0.289-0.48
				c3.239-0.81,9.424-4.713,9.487-4.752c0.181-0.117,0.428-0.064,0.546,0.123c0.118,0.185,0.063,0.43-0.123,0.547
				c-0.257,0.163-6.355,4.01-9.718,4.851C353.603,219.365,353.571,219.368,353.539,219.368z"/>
			<path style="fill:#599DB7;" d="M319.671,214.88c-0.033,0-0.067-0.004-0.1-0.013c0,0-2.185-0.571-4.702-1.263
				c-4.04-1.109-6.483-1.851-7.26-2.204c-0.199-0.091-0.287-0.326-0.197-0.525c0.092-0.199,0.323-0.287,0.525-0.197
				c0.727,0.331,3.198,1.079,7.142,2.161c2.511,0.69,4.691,1.261,4.691,1.261c0.212,0.055,0.339,0.272,0.284,0.484
				C320.007,214.762,319.847,214.88,319.671,214.88z"/>
			<path style="fill:#599DB7;" d="M328.911,203.216c-0.074,0-0.15-0.021-0.217-0.064c-1.141-0.746-1.817-1.252-2.259-1.695
				c-1.715-1.715-7.001-8.055-7.225-8.324c-0.14-0.168-0.118-0.418,0.051-0.558c0.168-0.141,0.418-0.118,0.558,0.051
				c0.055,0.066,5.487,6.582,7.177,8.271c0.508,0.508,1.407,1.117,2.132,1.591c0.184,0.12,0.234,0.365,0.115,0.548
				C329.167,203.153,329.04,203.216,328.911,203.216z"/>
			<path style="fill:#599DB7;" d="M329.378,212.532c-0.014,0-0.03-0.001-0.045-0.003c-2.804-0.326-7.947-2.15-16.526-8.987
				c-0.215-0.171-0.351-0.281-0.399-0.314c-0.181-0.122-0.23-0.369-0.108-0.55c0.123-0.182,0.367-0.23,0.548-0.109
				c0.052,0.035,0.208,0.157,0.454,0.354c8.432,6.72,13.422,8.505,16.123,8.819c0.218,0.025,0.374,0.222,0.348,0.44
				C329.749,212.383,329.577,212.532,329.378,212.532z"/>
		</g>
	</g>
	<g>
		
			<ellipse transform="matrix(0.7071 -0.7071 0.7071 0.7071 -218.101 208.1716)" style="fill:#ADE3F8;" cx="142.235" cy="367.357" rx="74.531" ry="74.531"/>
		<path style="fill:#B46D4F;" d="M170.814,292.444c0.489-0.326,3.261-4.24,5.218-1.957c1.957,2.283-0.979,5.871-5.708,6.197
			L170.814,292.444z"/>
		<path style="fill:#5A3728;" d="M171.303,293.749c0,0,1.631-1.957,2.772-1.142c1.142,0.815-1.141,2.772-2.446,2.772l-0.815-0.652
			L171.303,293.749z"/>
		<path style="fill:#FFC55C;" d="M120.261,325.059l8.806-3.588l33.267,5.218l8.48,10.111l-5.218,81.863l-17.938,12.068
			l-34.572-6.849c0,0,1.631-60.011,1.305-60.99C114.064,361.914,120.261,325.059,120.261,325.059z"/>
		<path style="fill:#B46D4F;" d="M127.436,323.428c0,0,4.566-16.633,4.892-19.895l30.332,16.633c0,0-1.957,10.437-2.609,13.046
			c0,0-10.763,5.871-11.741,5.871C147.331,339.083,134.285,334.843,127.436,323.428z"/>
		<g>
			<path style="fill:#FFDC9D;" d="M148.309,339.083c0,0,9.784,9.458,11.089,9.458s2.935-21.852,2.935-21.852
				S155.159,336.8,148.309,339.083z"/>
			<path style="fill:#FFDC9D;" d="M127.436,322.124c0,0,11.741,15.003,20.873,16.96c0,0-10.437,11.089-12.72,9.458
				C133.307,346.911,125.805,329.625,127.436,322.124z"/>
		</g>
		<path style="fill:#FFDC9D;" d="M143.092,412.121c-0.027,0-0.055-0.001-0.083-0.005c-0.347-0.045-0.592-0.363-0.546-0.711
			c0.965-7.396,5.495-68.814,5.541-69.433c0.025-0.349,0.338-0.606,0.679-0.586c0.349,0.026,0.611,0.33,0.586,0.679
			c-0.046,0.62-4.578,62.073-5.548,69.505C143.678,411.889,143.405,412.121,143.092,412.121z"/>
		<path style="fill:#FFFFFF;" d="M182.368,450.218H82.189l-1.392-9.051c0,0-14.35-5.218-16.307-16.96s-0.326-37.507,2.609-51.857
			c2.935-14.351,4.892-23.809,9.784-26.744c4.892-2.935,36.528-22.504,48.27-22.83c0,0-2.935,22.504-3.262,40.442
			c-0.326,17.938-2.609,36.202-2.609,36.202l13.046,26.744l24.135-3.588c0,0,8.806-51.857,7.175-94.909l-1.305-0.978
			c0,0,1.957-0.652,4.24,1.305c2.283,1.957,19.243,13.698,24.461,16.634c5.218,2.935,10.437,16.633,12.067,24.135
			c1.631,7.501,5.218,35.55,0.326,46.965c-4.892,11.415-14.677,22.83-18.264,24.135s-5.218,1.631-5.218,1.631L182.368,450.218z"/>
		<g>
			<path style="fill:#CCCCCC;" d="M169.835,379.076c-0.131,0-0.262-0.048-0.364-0.145c-0.212-0.201-0.22-0.536-0.019-0.747
				c5.954-6.267,12.387-13.559,12.581-14.726c0.213-1.368-4.478-17.382-7.485-27.153c-0.086-0.28,0.071-0.575,0.35-0.66
				c0.279-0.09,0.574,0.07,0.66,0.349c1.313,4.268,7.847,25.659,7.517,27.638c-0.336,2.015-10.77,13.083-12.858,15.281
				C170.114,379.021,169.975,379.076,169.835,379.076z"/>
			<path style="fill:#CCCCCC;" d="M112.671,396.882c-0.235,0-0.448-0.035-0.51-0.272c-1.298-4.992-4.081-16.413-2.71-17.784
				c1.195-1.195,5.168-3.134,6.832-3.829c-0.75-0.893-2.965-3.001-4.955-4.895c-7.2-6.853-10.378-10.142-10.181-11.524
				c0.328-2.292,11.783-27.598,13.088-30.475c0.121-0.265,0.434-0.384,0.7-0.263c0.266,0.12,0.383,0.434,0.263,0.699
				c-3.529,7.783-12.746,28.377-13.004,30.188c-0.039,1.186,6.403,7.317,9.863,10.61c5.225,4.973,5.621,5.47,5.497,6.023
				c-0.04,0.181-0.212,0.369-0.388,0.428c-0.936,0.312-5.76,2.577-6.969,3.785c-0.608,0.944,1.08,9.443,3.073,17.105
				c0.073,0.283-0.07,0.162-0.352,0.236C112.874,396.926,112.715,396.882,112.671,396.882z"/>
			<path style="fill:#CCCCCC;" d="M104.28,394.731c-0.01,0-0.021,0-0.032-0.001c-0.292-0.017-0.513-0.267-0.496-0.558l0.326-5.545
				c0.017-0.291,0.276-0.534,0.558-0.496c0.292,0.017,0.513,0.267,0.496,0.558l-0.326,5.545
				C104.79,394.514,104.557,394.731,104.28,394.731z"/>
			<path style="fill:#CCCCCC;" d="M119.282,399.949c-0.088,0-0.177-0.022-0.26-0.069c-9.89-5.604-17.286-4.75-25.118-3.847
				c-5.487,0.633-10.605,0.981-14.411,0.981c-0.292,0-0.528-0.236-0.528-0.528c0-0.292,0.236-0.528,0.528-0.528
				c3.766,0,8.841-0.346,14.29-0.975c8.007-0.924,15.57-1.796,25.76,3.979c0.254,0.143,0.343,0.465,0.199,0.719
				C119.644,399.853,119.466,399.949,119.282,399.949z"/>
			<path style="fill:#CCCCCC;" d="M89.253,442.369c-2.887,0-5.771-0.201-8.547-0.682c-0.287-0.05-0.48-0.323-0.43-0.61
				s0.323-0.487,0.611-0.43c16.628,2.875,37.356-4.467,37.564-4.543c0.272-0.097,0.577,0.044,0.676,0.319
				c0.099,0.275-0.044,0.577-0.319,0.676C118.633,437.162,103.94,442.369,89.253,442.369z"/>
			<path style="fill:#CCCCCC;" d="M110.477,434.195c-0.171,0-0.34-0.083-0.441-0.237c-12.088-18.294-4.038-36.85-3.956-37.035
				c0.12-0.266,0.432-0.384,0.698-0.267c0.266,0.12,0.386,0.431,0.267,0.698c-0.08,0.181-7.888,18.225,3.872,36.023
				c0.161,0.244,0.094,0.571-0.15,0.732C110.678,434.167,110.577,434.195,110.477,434.195z"/>
		</g>
		<path style="fill:#76D1F4;" d="M131.35,424.534c0,0-7.827,0.326-10.111-2.935c-2.283-3.262-4.892-12.72-4.24-16.634
			c0.652-3.914,7.827-11.415,9.458-12.72c1.631-1.305,6.849-4.566,10.111-4.566c3.261,0,8.154,2.609,8.154,2.609l-8.48,32.615
			L131.35,424.534z"/>
		<polygon style="fill:#FFFFFF;" points="129.719,372.35 135.59,371.372 141.786,395.181 138.525,400.399 137.655,401.921 		"/>
		<path style="fill:#333333;" d="M132.328,359.304c0,0,5.001,12.611,4.566,13.263c-0.435,0.652-0.87,0.435-0.87,0.435l-5.979,1.413
			l2.392,8.154c0,0-1.305-0.217-2.066-1.522c-0.761-1.305-2.174-7.719-2.392-9.023c-0.217-1.305-1.305-11.198-1.305-11.85
			c0-0.652,0.109-2.174,2.174-2.5C130.915,357.348,131.676,357.891,132.328,359.304z"/>
		<path style="fill:#76D1F4;" d="M131.458,392.354c0,0,3.044-1.957,6.414-0.435c3.37,1.522,5.653,3.914,5.653,3.914l-6.632,25.113
			l-4.349-13.481L131.458,392.354z"/>
		<path style="fill:#333333;" d="M147.331,372.894l-24.352,65.23c0,0-2.392,5.436,2.827,5.653c5.218,0.217,46.53,0,46.53,0
			s3.044-0.217,5.871-6.088c2.827-5.871,12.394-28.266,14.35-36.094c1.957-7.828,2.609-28.701,2.609-28.701l-43.269-0.87
			C151.897,372.024,147.983,372.024,147.331,372.894z"/>
		<path style="fill:#76D1F4;" d="M189.078,372.677h-6.523c0,0,2.827-5.218,8.697-6.74c5.871-1.522,12.394-2.827,17.612,2.609
			c5.218,5.436,10.219,16.525,10.002,21.961c-0.217,5.436-3.914,14.133-7.827,16.742c-3.914,2.609-10.002,2.827-12.611,2.609
			c-2.609-0.217-6.74-4.784-6.74-4.784s-4.131,0.435-6.088-1.305c-1.957-1.74-3.696-6.088-3.914-8.48c0,0-5.218-2.827-5.871-5.218
			c-0.652-2.392,0-5.218,1.957-5.653c1.957-0.435,7.175-3.479,8.697-4.783C187.991,378.33,189.078,372.677,189.078,372.677z"/>
		<g>
			<path style="fill:#599DB7;" d="M181.685,395.818c-0.284,0-0.519-0.226-0.528-0.512c-0.009-0.292,0.22-0.536,0.512-0.545
				c6.726-0.21,16.795-7.016,16.896-7.084c0.241-0.165,0.569-0.102,0.734,0.139c0.165,0.242,0.102,0.57-0.139,0.734
				c-0.422,0.288-10.427,7.047-17.458,7.267C181.696,395.818,181.69,395.818,181.685,395.818z"/>
			<path style="fill:#599DB7;" d="M191.687,405.602c-0.292,0-0.528-0.236-0.528-0.528c0-0.292,0.236-0.528,0.528-0.528
				c4.785,0,10.744-3.792,10.804-3.83c0.245-0.156,0.572-0.086,0.73,0.159c0.158,0.246,0.087,0.573-0.158,0.731
				C202.808,401.768,196.785,405.602,191.687,405.602z"/>
		</g>
		<path style="fill:#A553A5;" d="M181.032,368.547l-3.043-0.22c0,0,2.179-3.696-2.609-3.696c-3.588,0-4.457,3.805-4.457,3.805
			l-3.641,0.219c-0.535,0.032-1.008,0.359-1.226,0.848l-2.164,4.844c-0.425,0.951,0.271,2.024,1.313,2.024h13.02
			c0.526,0,1.01-0.287,1.262-0.749l2.705-4.954C182.692,369.752,182.075,368.623,181.032,368.547z M175.998,368.109
			c-0.172,0.669-0.783,1.09-1.364,0.94c-0.581-0.15-0.914-0.813-0.742-1.482c0.172-0.669,0.783-1.09,1.364-0.94
			C175.837,366.777,176.17,367.44,175.998,368.109z"/>
		<path style="fill:#B46D4F;" d="M172.77,280.486c0,0-1.739,14.568-1.739,18.047l-4.349,7.175l-11.741,0.217l-15.438-3.044
			l-4.349-5.871v-13.698l5.653-11.741c0,0,13.263,1.739,13.916,1.739c0.652,0,16.307,2.827,16.307,2.827L172.77,280.486z"/>
		<path style="fill:#AF5341;" d="M140.808,299.783c0,1.081,2.044,1.957,4.566,1.957c2.522,0,4.566-0.876,4.566-1.957
			c0-1.081-2.044-1.957-4.566-1.957C142.852,297.826,140.808,298.702,140.808,299.783z"/>
		<path style="fill:#AF5341;" d="M170.583,299.272c-0.191-0.046-0.379-0.095-0.579-0.131c-2.481-0.451-4.649,0.045-4.842,1.109
			c-0.17,0.936,1.249,1.999,3.285,2.548L170.583,299.272z"/>
		<path style="fill:#542D21;" d="M171.303,297.173c0,0,1.142,27.07-16.96,26.581c-18.101-0.489-23.157-13.372-23.32-19.08
			c-0.163-5.708,1.957-18.264,2.283-23.483c0.326-5.218,1.957-19.569,20.71-19.08c18.753,0.489,22.178,15.818,18.753,20.221
			c0,0-0.163-3.588-0.815-4.24c0,0-3.261,6.849-12.883,6.197c-9.621-0.652-14.514-6.36-15.655-7.991
			c-1.141-1.631-2.772-1.631-3.588,1.142c-0.815,2.772-3.261,10.926-2.609,14.677c0.652,3.751,8.643,10.111,19.732,10.763
			C168.041,303.533,171.14,297.663,171.303,297.173z"/>
		<circle style="fill:#542D21;" cx="149.288" cy="295.053" r="1.141"/>
		<path style="fill:#542D21;" d="M167.935,296.569c-0.113,0.62-0.707,1.032-1.327,0.919c-0.62-0.113-1.032-0.707-0.919-1.327
			c0.113-0.62,0.707-1.032,1.327-0.919C167.637,295.355,168.048,295.949,167.935,296.569z"/>
		<g>
			<path style="fill:#87523B;" d="M170.488,291.179c-0.209,0-0.407-0.126-0.49-0.331c-0.012-0.031-1.255-3.054-3.763-3.938
				c-0.275-0.097-0.419-0.399-0.322-0.674c0.097-0.277,0.399-0.421,0.674-0.323c2.964,1.047,4.335,4.4,4.392,4.542
				c0.108,0.27-0.023,0.578-0.294,0.686C170.62,291.167,170.553,291.179,170.488,291.179z"/>
			<path style="fill:#87523B;" d="M144.721,289.385c-0.084,0-0.169-0.02-0.248-0.062c-0.258-0.137-0.355-0.457-0.218-0.715
				c1.403-2.629,5.87-3.65,6.059-3.693c0.283-0.061,0.567,0.116,0.63,0.402c0.063,0.284-0.116,0.566-0.4,0.63
				c-0.042,0.009-4.183,0.958-5.356,3.158C145.093,289.284,144.91,289.385,144.721,289.385z"/>
			<path style="fill:#87523B;" d="M157.478,302.594c-0.292,0-0.605-0.029-0.94-0.086c-0.288-0.05-0.481-0.322-0.432-0.61
				c0.049-0.288,0.323-0.483,0.609-0.432c0.631,0.108,1.479,0.144,1.944-0.294c0.454-0.428,0.379-1.153,0.378-1.161l0.16-8.229
				c0.006-0.292,0.272-0.526,0.539-0.518c0.292,0.006,0.524,0.248,0.518,0.539l-0.163,8.157l0,0c0.005,0,0.133,1.179-0.696,1.971
				C158.934,302.372,158.291,302.594,157.478,302.594z"/>
		</g>
		<path style="fill:#FFFFFF;" d="M160.001,308.538c0,0-3.314,0.254-7.434-1.021c0,0-1.383,3.989,2.783,4.613
			C159.517,312.754,159.613,308.837,160.001,308.538z"/>
		<path style="fill:#B46D4F;" d="M133.796,287.389c0,0-3.914-4.892-6.36-1.305c-2.446,3.588,4.24,7.012,4.892,7.012
			S133.796,288.694,133.796,287.389z"/>
		<path style="fill:#5A3728;" d="M132.328,288.367l-0.489,2.609c0,0-2.609-1.305-2.12-3.098
			C130.208,286.084,132.328,288.367,132.328,288.367z"/>
	</g>
	<g>
		
			<ellipse transform="matrix(0.9739 -0.2268 0.2268 0.9739 -74.3112 87.9259)" style="fill:#ADE3F8;" cx="345.488" cy="367.357" rx="74.531" ry="74.531"/>
		<path style="fill:#F1956C;" d="M282.107,326.658c0,0,7.534-1.13,10.171-4.897c2.637-3.767,3.014-5.462,2.448-6.027
			c-0.565-0.565-4.709-9.983-5.274-10.736c-0.565-0.753-13.938,12.62-13.938,12.62L282.107,326.658z"/>
		<path style="fill:#76D1F4;" d="M281.692,292.001c0,0,2.714,0.7,3.543-1.534c0.828-2.234,1.305-7.319-5.764-9.391L281.692,292.001z
			"/>
		<path style="fill:#B4613E;" d="M414.896,365.459c0,0,5.651-4.52,1.507-10.171c-4.144-5.651-8.288-9.041-6.404-19.589
			c1.883-10.548,2.26-28.253-1.884-38.801c-4.144-10.548-12.431-15.068-19.589-12.055c0,0-2.637-9.041-12.431-7.157
			c-9.794,1.884-25.993,15.822-30.513,41.438c-4.52,25.616-6.781,35.41-9.418,39.931c-2.637,4.52,50.479,12.808,50.479,12.808
			L414.896,365.459z"/>
		<path style="fill:#F1956C;" d="M390.41,333.533c0,0-0.262,1.918-0.562,4.521c-0.464,4.024-1.022,9.686-0.851,12.431l-20.907,7.346
			l-11.584-4.52l-2.543-8.758c0,0,0.555-4.167,1.253-8.782c0.71-4.694,1.567-9.851,2.137-11.56L390.41,333.533z"/>
		<path style="fill:#B46D4F;" d="M389.848,338.054c0.301-2.603,0.562-4.521,0.562-4.521l-33.056-9.323
			c-0.57,1.709-1.427,6.867-2.137,11.56c0,0,14.568,11.89,33.498,3.414L389.848,338.054z"/>
		<path style="fill:#F1956C;" d="M361.027,304.433c0,0-3.955-6.498-6.781-2.543c-2.825,3.955,5.368,7.346,5.368,7.346
			L361.027,304.433z"/>
		<path style="fill:#B46D4F;" d="M359.332,306.41c0,0-1.695-3.673-3.39-2.825c-1.695,0.848,3.108,4.097,3.108,4.097L359.332,306.41z
			"/>
		<path style="fill:#F1956C;" d="M397.05,317.712c0,0,6.357,0.424,6.498,3.108c0.141,2.684-3.249,4.662-8.193,3.814l-0.424-2.967
			L397.05,317.712z"/>
		<path style="fill:#B46D4F;" d="M396.202,320.961c0,0,3.673-0.424,3.532,0.848c-0.141,1.271-3.673,0.706-3.673,0.706
			L396.202,320.961z"/>
		<path style="fill:#F1956C;" d="M363.005,296.522c0,0-4.803,9.606-6.357,17.658s-0.706,20.342,11.725,23.591
			c12.431,3.249,22.744-2.543,25.71-9.324c2.967-6.781,3.955-12.996,3.955-12.996l-7.063-19.636l-8.052-5.933l-11.725,3.532
			L363.005,296.522z"/>
		<path style="fill:#B4613E;" d="M360.038,302.879c0,0,13.279,0.424,22.744-7.911c0,0,2.543,16.669,14.268,22.744l1.978,0.141
			l2.26-4.379c0,0-6.922-21.048-7.628-21.331c-0.706-0.283-17.234-6.498-17.234-6.498l-16.528,8.9L360.038,302.879z"/>
		<g>
			<path style="fill:#B46D4F;" d="M389.986,316.686c-0.226,0-0.435-0.145-0.505-0.372c-1.07-3.476-4.311-6.073-4.344-6.099
				c-0.229-0.181-0.267-0.513-0.086-0.742c0.182-0.228,0.515-0.267,0.742-0.086c0.143,0.113,3.533,2.83,4.697,6.615
				c0.087,0.28-0.07,0.575-0.349,0.661C390.09,316.679,390.038,316.686,389.986,316.686z"/>
			<path style="fill:#B46D4F;" d="M362.583,305.807c-0.168,0-0.334-0.081-0.437-0.229c-0.164-0.241-0.104-0.569,0.136-0.734
				c0.098-0.067,2.442-1.647,6.515-1.647c0.292,0,0.528,0.236,0.528,0.528c0,0.292-0.236,0.528-0.528,0.528
				c-3.724,0-5.896,1.447-5.918,1.462C362.789,305.779,362.685,305.807,362.583,305.807z"/>
			<path style="fill:#B46D4F;" d="M368.232,321.772c-0.072,0-0.144-0.014-0.215-0.045c-1.086-0.482-1.728-1.159-1.909-2.012
				c-0.269-1.264,0.562-2.516,1.306-3.344c1.216-1.351,4.697-7.746,4.732-7.81c0.139-0.257,0.463-0.35,0.716-0.213
				c0.257,0.139,0.352,0.46,0.213,0.716c-0.146,0.268-3.576,6.571-4.874,8.012c-0.476,0.528-1.246,1.545-1.06,2.418
				c0.107,0.503,0.547,0.929,1.306,1.266c0.266,0.119,0.387,0.431,0.268,0.698C368.627,321.655,368.434,321.772,368.232,321.772z"/>
		</g>
		<path style="fill:#653726;" d="M383.842,316.652c0,0.546-0.443,0.989-0.989,0.989c-0.546,0-0.989-0.443-0.989-0.989
			s0.443-0.989,0.989-0.989C383.399,315.663,383.842,316.106,383.842,316.652z"/>
		<path style="fill:#653726;" d="M365.053,309.589c0,0.546-0.443,0.989-0.989,0.989c-0.546,0-0.989-0.443-0.989-0.989
			c0-0.546,0.443-0.989,0.989-0.989C364.611,308.6,365.053,309.043,365.053,309.589z"/>
		<path style="fill:#ED795A;" d="M391.42,324.668c-0.426,1.256-2.868,1.563-5.454,0.686c-2.586-0.877-4.337-2.607-3.911-3.863
			s2.868-1.563,5.454-0.686C390.095,321.683,391.846,323.412,391.42,324.668z"/>
		<path style="fill:#ED795A;" d="M359.115,310.634c-0.514-0.174-1.017-0.289-1.505-0.372c-0.379,1.315-0.715,2.636-0.962,3.917
			c-0.037,0.192-0.071,0.388-0.105,0.584c0.326,0.153,0.667,0.296,1.029,0.419c2.586,0.877,5.028,0.57,5.454-0.686
			C363.452,313.241,361.701,311.512,359.115,310.634z"/>
		<path style="fill:#FFFFFF;" d="M368.232,326.753c0,0,4.097,1.554,10.877-0.848c0,0,0.565,4.52-5.368,4.803
			C367.808,330.991,368.232,326.753,368.232,326.753z"/>
		<path style="fill:#E7A4E4;" d="M354.529,340.879c0,0,1.13,9.041,12.431,11.301c11.301,2.26,22.037-3.39,22.037-3.39l6.216,2.26
			l-35.599,92.952l-18.082-1.413c0,0,1.695-72.61,1.978-73.458C343.793,368.284,354.529,340.879,354.529,340.879z"/>
		<g>
			<path style="fill:#A553A5;" d="M381.274,368.207c-2.077-0.189-2.946-0.38-4.148-0.645c-0.632-0.139-1.364-0.301-2.444-0.498
				c-0.839-0.152-1.491-0.219-2.017-0.273c-1.44-0.148-2.39-0.246-3.477-1.875c-0.789-1.184-2.179-1.508-6.466-1.508
				c-4.402,0-15.405-6.474-16.645-7.212l1.082-1.816c3.231,1.924,12.327,6.914,15.564,6.914c3.982,0,6.705,0.17,8.225,2.449
				c0.535,0.801,0.64,0.812,1.934,0.945c0.561,0.057,1.259,0.129,2.179,0.295c1.115,0.203,1.871,0.37,2.522,0.514
				c1.167,0.258,1.938,0.427,3.881,0.604L381.274,368.207z"/>
			<path style="fill:#A553A5;" d="M376.592,380.893c-0.097-0.024-2.427-0.618-5.617-2.357c-1.761-0.961-2.729-1.001-5.319-1.11
				c-1.486-0.063-3.521-0.15-6.437-0.462c-8.212-0.879-14.798-7.945-15.074-8.246l1.555-1.431c0.063,0.068,6.334,6.782,13.744,7.576
				c2.848,0.305,4.844,0.39,6.301,0.451c2.697,0.115,4.05,0.171,6.241,1.367c2.934,1.6,5.099,2.158,5.121,2.163L376.592,380.893z"/>
			<path style="fill:#A553A5;" d="M372.277,393.02c-0.016-0.006-1.678-0.553-4.394-1.097c-2.22-0.444-2.842-0.941-3.426-1.546
				c-0.127-0.132-0.212-0.219-0.343-0.307c-0.53-0.353-3.269-1.226-7.956-1.519c-4.728-0.296-9.874-3.411-10.091-3.543l1.101-1.804
				c0.049,0.03,4.924,2.974,9.122,3.237c4.694,0.293,7.953,1.176,8.996,1.87c0.321,0.214,0.526,0.426,0.69,0.596
				c0.294,0.304,0.572,0.592,2.321,0.942c2.857,0.572,4.575,1.139,4.647,1.163L372.277,393.02z"/>
			<path style="fill:#A553A5;" d="M367.402,404.085c-0.513-0.06-5.077-0.624-7.182-1.828c-1.246-0.712-2.383-0.765-4.267-0.851
				c-0.695-0.033-1.47-0.069-2.359-0.143c-3.625-0.301-9.851-4.52-10.114-4.7l1.191-1.746c1.666,1.135,6.548,4.128,9.098,4.341
				c0.861,0.071,1.61,0.106,2.282,0.137c2.05,0.095,3.53,0.163,5.218,1.128c1.467,0.839,5.103,1.413,6.381,1.564L367.402,404.085z"
				/>
			<path style="fill:#A553A5;" d="M364.93,416.752l-2.542-0.848c-0.357-0.119-0.787-0.285-1.285-0.479
				c-1.837-0.715-4.613-1.797-8.054-2.011c-4.711-0.294-8.764-2.583-8.934-2.68l1.047-1.835c0.038,0.021,3.811,2.143,8.019,2.406
				c3.769,0.235,6.73,1.388,8.689,2.151c0.459,0.179,0.856,0.334,1.186,0.444l2.543,0.849L364.93,416.752z"/>
			<path style="fill:#A553A5;" d="M359.394,428.366c-0.04-0.008-3.972-0.848-7.298-1.404l-6.78-1.13l0.347-2.085l6.78,1.13
				c3.376,0.564,7.354,1.413,7.393,1.422L359.394,428.366z"/>
		</g>
		<path style="fill:#FFFFFF;" d="M349.726,450.218c0,0,18.647-59.049,27.123-75.718c8.476-16.669,13.844-26.275,13.844-26.275
			s8.476,3.955,9.323,5.086c0.848,1.13,1.413,3.955,1.413,3.955s24.015,11.866,30.231,20.907c6.216,9.041,9.889,72.045,9.889,72.045
			H349.726z"/>
		<path style="fill:#A553A5;" d="M401.263,413.657l-16.032-3.786c-0.85-0.201-1.376-1.052-1.175-1.902l2.218-9.393
			c0.201-0.85,1.052-1.376,1.902-1.176l16.032,3.786c0.85,0.201,1.376,1.052,1.176,1.902l-2.218,9.393
			C402.964,413.331,402.113,413.858,401.263,413.657z"/>
		<path style="fill:#333333;" d="M399.805,397.13l-0.328-0.077c0.007-0.021,0.022-0.037,0.027-0.059l0.412-1.746
			c0.113-0.478-0.183-0.958-0.662-1.071l-3.421-0.808c-0.479-0.113-0.958,0.183-1.071,0.662l-0.412,1.746
			c-0.005,0.022,0.001,0.043-0.002,0.065l-0.511-0.121c-0.898-0.212-1.798,0.344-2.01,1.242l-0.491,2.078
			c-0.212,0.898,0.344,1.798,1.242,2.01l5.968,1.409c0.898,0.212,1.798-0.344,2.01-1.242l0.491-2.078
			C401.26,398.242,400.704,397.342,399.805,397.13z"/>
		<path style="fill:#FFC55C;" d="M392.012,404.825c0,1.456-1.181,2.637-2.637,2.637c-1.456,0-2.637-1.181-2.637-2.637
			c0-1.456,1.181-2.637,2.637-2.637C390.831,402.188,392.012,403.369,392.012,404.825z"/>
		<g>
			<path style="fill:#FFFFFF;" d="M401.429,407.613c-0.039,0-0.079-0.004-0.12-0.013l-6.71-1.557
				c-0.284-0.066-0.461-0.35-0.395-0.635c0.066-0.283,0.348-0.461,0.635-0.395l6.71,1.557c0.284,0.066,0.461,0.35,0.395,0.635
				C401.887,407.448,401.67,407.613,401.429,407.613z"/>
			<path style="fill:#FFFFFF;" d="M399.169,409.214c-0.039,0-0.081-0.004-0.121-0.014l-4.803-1.13
				c-0.285-0.066-0.46-0.351-0.393-0.635c0.066-0.283,0.35-0.464,0.635-0.393l4.803,1.13c0.285,0.066,0.46,0.351,0.393,0.635
				C399.626,409.05,399.41,409.214,399.169,409.214z"/>
		</g>
		<path style="fill:#FFFFFF;" d="M351.61,449.841c0,0-3.767-62.533-3.014-79.485c0.753-16.952,5.933-29.477,5.933-29.477
			s-16.104,4.615-16.858,6.121c-0.753,1.507,0.377,3.39-2.26,3.39c-2.637,0-10.924-0.848-16.198-0.471
			c-5.274,0.377-16.198-16.858-16.198-16.858s1.224-1.224,0.377-2.919c-0.848-1.695-6.498-14.692-7.346-15.539
			c-0.848-0.848-2.543-1.413-2.543-1.413l-24.015,19.212c0,0,1.13,26.558,10.171,38.142c9.041,11.584,22.037,19.777,22.037,19.777
			s7.911,3.108,10.736,11.866c2.825,8.759,11.866,48.03,11.866,48.03L351.61,449.841z"/>
		<g>
			<path style="fill:#CCCCCC;" d="M362.158,446.226c-0.101,0-0.203-0.029-0.293-0.089c-0.242-0.162-0.309-0.49-0.147-0.733
				c0.329-0.537,5.533-11.496,10.565-22.093c5.664-11.929,11.014-23.195,11.459-23.937c0.266-0.504-1.023-3.139-1.794-4.714
				c-1.391-2.845-2.226-4.64-1.849-5.621c0.818-2.139,17.479-7.647,17.646-7.698c0.896-0.798,1.464-10.864,1.464-20.12
				c0-0.292,0.236-0.528,0.528-0.528c0.292,0,0.528,0.236,0.528,0.528c0,7.638-0.287,20.539-2.212,21.129
				c-3.706,1.14-16.31,5.806-16.972,7.074c-0.227,0.594,1.002,3.107,1.815,4.771c1.444,2.951,2.3,4.805,1.75,5.721
				c-0.419,0.699-6.258,12.997-11.411,23.848c-6.435,13.551-10.361,21.809-10.64,22.226
				C362.495,446.143,362.328,446.226,362.158,446.226z"/>
			<path style="fill:#CCCCCC;" d="M404.255,450.746c-0.01,0-0.022,0-0.033-0.001c-0.291-0.019-0.513-0.269-0.494-0.56
				c0.003-0.044,0.281-4.553,0.281-8.725v-17.8c0-0.292,0.236-0.528,0.528-0.528c0.292,0,0.528,0.236,0.528,0.528v17.8
				c0,4.205-0.28,8.745-0.283,8.791C404.765,450.53,404.533,450.746,404.255,450.746z"/>
			<path style="fill:#CCCCCC;" d="M344.639,446.226c-0.249,0-0.47-0.176-0.518-0.429c-0.096-0.506-9.611-50.598-10.168-53.247
				c-0.557-2.643,5.698-8.941,7.707-10.885c-2.159-2.588-9.414-11.454-9.414-13.663c0-2.334,8.687-17.475,9.678-19.194
				c0.147-0.253,0.467-0.34,0.722-0.194c0.253,0.147,0.34,0.47,0.194,0.722c-3.687,6.397-9.538,17.122-9.538,18.666
				c0,1.507,5.817,8.996,9.484,13.363c0.179,0.214,0.162,0.53-0.04,0.722c-3.195,3.035-8.127,8.5-7.76,10.244
				c0.559,2.659,10.077,52.761,10.173,53.267c0.055,0.287-0.134,0.563-0.42,0.618C344.705,446.223,344.672,446.226,344.639,446.226z
				"/>
			<path style="fill:#CCCCCC;" d="M296.234,338.677c-0.199,0-0.39-0.113-0.48-0.306c-0.122-0.265-0.006-0.579,0.258-0.702
				c2.332-1.077,4.908-3.636,4.934-3.661c0.206-0.206,0.541-0.206,0.747,0c0.206,0.206,0.206,0.541,0,0.747
				c-0.11,0.111-2.733,2.716-5.237,3.874C296.384,338.661,296.309,338.677,296.234,338.677z"/>
		</g>
		<path style="fill:#E6E6E6;" d="M303.311,346.53l-16.94-26.974c-0.023-0.036-0.038-0.076-0.047-0.118l-4.633-23.858v-29.76h-4.452
			h-0.387h-4.452v29.76l-4.633,23.858c-0.008,0.042-0.024,0.082-0.047,0.118l-16.94,26.974c-1.347,2.145-0.686,4.935,1.487,6.295
			c4.199,2.626,12.149,6.151,24.584,6.224v0.007c0.066,0,0.128-0.003,0.194-0.003c0.066,0,0.128,0.003,0.194,0.003v-0.007
			c12.435-0.073,20.385-3.598,24.584-6.224C303.997,351.465,304.658,348.675,303.311,346.53z"/>
		<ellipse style="fill:#FFFFFF;" cx="277.002" cy="265.82" rx="4.689" ry="1.793"/>
		<path style="fill:#A553A5;" d="M299.797,349.427l-12.076-21.258c-0.522-0.919-1.535-1.446-2.588-1.345l-5.083,0.488
			c-1.999,0.192-4.011,0.193-6.01,0.004l-5.219-0.493c-1.055-0.1-2.07,0.432-2.59,1.356l-11.945,21.255
			c-0.316,0.279-0.485,0.567-0.485,0.863c0,2.341,10.407,4.238,23.245,4.238c12.838,0,23.245-1.897,23.245-4.238
			C300.291,349.999,300.118,349.708,299.797,349.427z"/>
		<g>
			<defs>
				<path id="SVGID_00000035518671534954757420000013011350847529568897_" d="M303.311,346.53l-16.94-26.974
					c-0.023-0.036-0.038-0.076-0.047-0.118l-4.633-23.858v-29.76h-4.452h-0.387h-4.452v29.76l-4.633,23.858
					c-0.008,0.042-0.024,0.082-0.047,0.118l-16.94,26.974c-1.347,2.145-0.686,4.935,1.487,6.295
					c4.199,2.626,12.149,6.151,24.584,6.224v0.007c0.066,0,0.128-0.003,0.194-0.003c0.066,0,0.128,0.003,0.194,0.003v-0.007
					c12.435-0.073,20.385-3.598,24.584-6.224C303.997,351.465,304.658,348.675,303.311,346.53z"/>
			</defs>
			<clipPath id="SVGID_00000152975718134267867910000011700024560858507445_">
				<use xlink:href="#SVGID_00000035518671534954757420000013011350847529568897_"  style="overflow:visible;"/>
			</clipPath>
			<g style="clip-path:url(#SVGID_00000152975718134267867910000011700024560858507445_);">
				<path style="fill:#FFFFFF;" d="M274.53,342.812c-15.177,0-21.256-5.91-21.52-6.174c-0.206-0.206-0.205-0.54,0-0.746
					c0.206-0.206,0.541-0.207,0.747-0.001c0.065,0.064,6.743,6.486,23.224,5.813c0.292,0.004,0.538,0.216,0.55,0.507
					c0.011,0.292-0.216,0.538-0.507,0.55C276.168,342.794,275.335,342.812,274.53,342.812z"/>
				<path style="fill:#FFFFFF;" d="M271.29,333.204c-7.604,0-12.888-2.72-16.08-5.135c-3.829-2.897-5.519-5.921-5.589-6.047
					c-0.14-0.256-0.048-0.577,0.208-0.717c0.256-0.141,0.577-0.047,0.717,0.208c0.065,0.118,6.717,11.773,23.117,10.546
					c0.288-0.021,0.545,0.197,0.567,0.488c0.022,0.291-0.197,0.545-0.488,0.567C272.9,333.174,272.081,333.204,271.29,333.204z"/>
				<path style="fill:#FFFFFF;" d="M272.043,323.836c-7.604,0-12.888-2.72-16.08-5.135c-3.829-2.897-5.519-5.921-5.589-6.047
					c-0.14-0.256-0.048-0.577,0.208-0.717c0.256-0.141,0.577-0.047,0.717,0.208c0.065,0.118,6.711,11.776,23.117,10.546
					c0.285-0.021,0.545,0.197,0.567,0.488c0.022,0.291-0.197,0.545-0.488,0.567C273.653,323.806,272.835,323.836,272.043,323.836z"
					/>
			</g>
		</g>
		<path style="fill:#76D1F4;" d="M272.401,290.935l-0.089-10.622c-2.88,0.256-4.563,1.143-4.563,1.143s-5.796,2.352-8.621,6.166
			c-2.825,3.814-5.756,12.418-5.327,18.193c0.43,5.775,6.532,14.209,11.391,15.078c4.86,0.868,19.001-0.968,20.783-3.252
			c1.782-2.284,1.029-7.87,1.029-7.87s2.189-2.325,1.754-4.491c-0.435-2.166-0.623-3.461-0.623-3.461s0.796-1.719,0.681-4.544
			c-0.116-2.825-7.124-5.274-7.124-5.274L272.401,290.935z"/>
		<g>
			<path style="fill:#599DB7;" d="M279.466,311.923c-5.62,0-11.477-1.543-11.847-1.642c-0.282-0.076-0.449-0.365-0.374-0.647
				c0.076-0.282,0.372-0.443,0.647-0.375c0.135,0.037,13.436,3.544,18.827,0.067c0.242-0.161,0.571-0.088,0.73,0.158
				c0.159,0.245,0.088,0.572-0.158,0.73C285.301,311.498,282.416,311.923,279.466,311.923z"/>
			<path style="fill:#599DB7;" d="M285.346,302.708c-5.418,0-13.78-2.505-14.206-2.634c-0.28-0.085-0.438-0.379-0.353-0.658
				c0.085-0.279,0.381-0.438,0.658-0.353c0.124,0.037,12.396,3.712,16.513,2.257c0.275-0.099,0.577,0.046,0.675,0.322
				c0.097,0.276-0.047,0.578-0.322,0.675C287.528,302.594,286.504,302.708,285.346,302.708z"/>
		</g>
	</g>
	<g>
		
			<ellipse transform="matrix(0.7071 -0.7071 0.7071 0.7071 -54.3874 140.3591)" style="fill:#ADE3F8;" cx="142.235" cy="135.831" rx="74.531" ry="74.531"/>
		<path style="fill:#FFFFFF;" d="M179.358,91.09c-1.069-1.041-2.745-1.3-4.073-0.643l-0.561-1.137
			c1.803-0.889,4.072-0.537,5.519,0.871L179.358,91.09z"/>
		<path style="fill:#542D21;" d="M175.766,120.876c-0.601-1.502-0.601-5.105,2.403-7.508c3.003-2.402,3.604-4.505-0.3-7.508
			c-3.904-3.003,1.201-4.204,2.402-6.907c1.201-2.703-3.303-7.508-4.805-8.108c-1.502-0.601-37.238-3.604-37.238-3.604
			s-6.307-2.102-9.61-1.201c-3.303,0.901-6.006,3.604-6.006,6.006c0,2.402-1.502,4.204-3.303,4.505
			c-1.802,0.3-3.303,1.802-1.802,3.904c1.502,2.102,2.102,3.003,0.601,4.204c-1.502,1.201-2.703,2.703,1.501,6.907
			s31.532,14.715,31.532,14.715L175.766,120.876z"/>
		<path style="fill:#E7A4E4;" d="M134.724,96.151l-3.203,15.616c0,0,3.604,6.407,13.214,8.008c9.61,1.602,18.018-0.801,20.621-3.203
			l2.202-11.212L134.724,96.151z"/>
		<path style="fill:#E7A4E4;" d="M124.714,109.765c0,0,5.806-0.601,9.009-0.801c3.203-0.2,33.234,6.407,33.234,6.407l1.401,30.431
			l-17.618,72.675l-14.815,2.202l-16.016-108.511L124.714,109.765z"/>
		<path style="fill:#542D21;" d="M172.163,89.344c0,0,8.108-1.802,9.31-7.808c1.201-6.006-1.201-7.808-3.303-9.91
			c-2.102-2.102,1.802-6.306,0-9.009c-1.802-2.703-4.204,0-5.706-0.901c-1.501-0.901,0.901-6.607-3.303-6.006
			c-4.204,0.601-5.406,2.403-6.306-1.802c-0.901-4.204-4.505-3.904-5.706-1.501s-3.904,3.303-6.307,0.601
			c-2.402-2.703-7.508-4.805-10.511-1.201c-3.003,3.604-0.901,6.306-6.307,6.907c-5.406,0.601-9.61-0.3-10.211,5.105
			c-0.601,5.406,2.403,6.306,0,9.31c-2.402,3.003-2.402,9.61,1.802,10.811c4.204,1.201,9.61,3.003,9.61,3.003l22.223,6.907
			l13.514-2.402L172.163,89.344z"/>
		<path style="fill:#FFFFFF;" d="M133.223,83.072c-0.635-1.112-1.824-1.803-3.103-1.803v-1.268c1.733,0,3.345,0.936,4.204,2.443
			L133.223,83.072z"/>
		<path style="fill:#FFFFFF;" d="M128.121,81.88l-0.711-1.049c0.801-0.543,1.738-0.83,2.71-0.83v1.268
			C129.403,81.269,128.712,81.48,128.121,81.88z"/>
		<path style="fill:#B46D4F;" d="M136.426,78.833c0,0-4.505-5.105-6.907-1.201c-2.403,3.904,6.006,6.307,6.006,6.307L136.426,78.833
			z"/>
		<path style="fill:#B46D4F;" d="M173.064,86.341c0,0,5.406-3.604,7.207-1.802c1.802,1.802-0.601,6.006-4.805,6.306
			C171.262,91.146,173.064,86.341,173.064,86.341z"/>
		<path style="fill:#5A3728;" d="M135.025,80.435c0,0-2.202-2.503-3.103-1.301c-0.901,1.201,1.502,3.303,2.503,2.903
			C135.425,81.636,135.025,80.435,135.025,80.435z"/>
		<path style="fill:#FFFFFF;" d="M130.12,89.678c-2.668,0-4.839-2.171-4.839-4.838c0-1.607,0.796-3.106,2.129-4.008
			c0.29-0.196,0.684-0.121,0.88,0.169c0.197,0.29,0.121,0.684-0.169,0.88c-0.984,0.667-1.571,1.772-1.571,2.959
			c0,1.968,1.602,3.57,3.57,3.57c1.969,0,3.57-1.602,3.57-3.57c0-0.621-0.161-1.232-0.467-1.767
			c-0.174-0.304-0.068-0.691,0.236-0.865c0.304-0.173,0.691-0.068,0.865,0.236c0.415,0.726,0.634,1.555,0.634,2.396
			C134.958,87.507,132.787,89.678,130.12,89.678z"/>
		<path style="fill:#FFFFFF;" d="M176.868,98.487c-2.668,0-4.839-2.171-4.839-4.839c0-1.853,1.033-3.516,2.694-4.339
			c0.313-0.156,0.694-0.027,0.849,0.287c0.155,0.314,0.027,0.694-0.287,0.849c-1.227,0.607-1.988,1.834-1.988,3.202
			c0,1.969,1.602,3.57,3.57,3.57c1.969,0,3.57-1.602,3.57-3.57c0-0.972-0.383-1.881-1.079-2.559
			c-0.251-0.244-0.257-0.646-0.012-0.896c0.244-0.252,0.645-0.257,0.896-0.012c0.944,0.919,1.463,2.15,1.463,3.467
			C181.706,96.316,179.536,98.487,176.868,98.487z"/>
		<path style="fill:#5A3728;" d="M174.251,88.157c0,0,2.302-2.403,3.003-1.301c0.701,1.101-2.202,2.402-2.803,2.302
			c-0.601-0.1-1.301-0.3-1.301-0.3L174.251,88.157z"/>
		<path style="fill:#B46D4F;" d="M136.727,70.825c0,0-3.103,16.217-3.504,19.82c-0.4,3.604,1.201,18.018,17.418,20.721
			c15.049,2.508,21.222-9.009,22.423-15.516c1.201-6.507,1.301-14.215,2.603-17.718s-2.803-7.708-2.803-7.708
			s-9.109-5.005-9.61-5.005s-18.018-1.502-18.319-1.401C144.635,64.118,136.727,70.825,136.727,70.825z"/>
		<path style="fill:#542D21;" d="M134.724,77.231c0,0,2.603,3.604,6.607,3.003c4.004-0.601,4.505-4.705,4.004-7.107
			c-0.501-2.402,0.601-4.405,1.501-2.803c0.901,1.602-1.301,6.907,3.103,7.408c4.404,0.5,5.506-5.205,6.807-7.107
			c1.301-1.902,0.901,2.002,1.301,4.204c0.4,2.202,3.303,2.903,5.205,1.602c1.902-1.301,3.103-1.001,3.003,2.903
			c-0.097,3.771,4.756,7.448,8.334,6.071c0.127-0.049,0.252-0.104,0.375-0.165l3.003-6.507l-1.902-6.907l-9.41-7.007
			c0,0-21.422-3.203-22.523-2.803c-1.101,0.4-9.51,5.205-9.51,5.205L134.724,77.231z"/>
		<circle style="fill:#542D21;" cx="146.787" cy="86.891" r="1.051"/>
		<g>
			<path style="fill:#87523B;" d="M140.731,82.765c-0.212,0-0.411-0.128-0.493-0.337c-0.106-0.271,0.028-0.577,0.3-0.684
				c0.173-0.068,4.293-1.645,8.98-0.931c0.288,0.044,0.487,0.313,0.443,0.602c-0.044,0.288-0.314,0.489-0.602,0.443
				c-4.4-0.67-8.397,0.856-8.437,0.871C140.86,82.754,140.795,82.765,140.731,82.765z"/>
			<path style="fill:#87523B;" d="M170.762,87.77c-0.152,0-0.303-0.066-0.408-0.192c-1.762-2.133-5.577-3.016-5.615-3.024
				c-0.285-0.064-0.463-0.347-0.399-0.632c0.064-0.285,0.345-0.463,0.632-0.399c0.171,0.038,4.203,0.969,6.197,3.382
				c0.186,0.225,0.154,0.558-0.071,0.744C170.999,87.73,170.88,87.77,170.762,87.77z"/>
			<path style="fill:#87523B;" d="M154.244,97.08c-0.292,0-0.528-0.236-0.528-0.528c0-0.292,0.236-0.528,0.528-0.528
				c1.361-0.001,2.8-0.221,3.02-0.463c0.127-0.571,0.08-8.004-0.031-8.705c-0.092-0.277,0.064-0.549,0.341-0.641
				c0.275-0.092,0.583,0.083,0.675,0.361c0.187,0.562,0.197,8.562,0.011,9.305C158.012,96.871,155.939,97.08,154.244,97.08z"/>
			<path style="fill:#87523B;" d="M151.742,101.785c-0.007,0-0.015,0-0.022,0c-5.187-0.212-6.713-3.879-6.775-4.036
				c-0.108-0.271,0.024-0.578,0.295-0.687c0.268-0.108,0.576,0.023,0.686,0.293c0.055,0.133,1.361,3.191,5.838,3.374
				c0.292,0.012,0.518,0.258,0.506,0.549C152.258,101.562,152.024,101.785,151.742,101.785z"/>
		</g>
		<path style="fill:#AF5341;" d="M147.337,92.397c0,1.355-2.308,2.453-5.155,2.453c-2.847,0-5.155-1.098-5.155-2.453
			c0-1.354,2.308-2.452,5.155-2.452C145.029,89.944,147.337,91.042,147.337,92.397z"/>
		<path style="fill:#542D21;" d="M165.704,89.449c-0.163,0.557,0.157,1.141,0.714,1.304c0.557,0.163,1.141-0.157,1.304-0.714
			c0.163-0.557-0.157-1.141-0.714-1.304C166.451,88.572,165.867,88.891,165.704,89.449z"/>
		<path style="fill:#AF5341;" d="M164.64,94.873c-0.38,1.3,1.527,3.002,4.26,3.8c1.188,0.347,2.324,0.454,3.274,0.371
			c0.416-1.134,0.709-2.221,0.889-3.195c0.03-0.165,0.057-0.334,0.086-0.5c-0.747-0.555-1.731-1.05-2.874-1.384
			C167.543,93.167,165.02,93.574,164.64,94.873z"/>
		<path style="fill:#FFFFFF;" d="M166.957,115.37c0,0,36.237,22.223,39.24,28.83c3.003,6.607,11.412,32.433,12.813,44.446
			c1.401,12.012,2.202,19.22-1.602,25.826s-14.214,15.416-14.214,15.416l-6.206,1.802H80.469c0,0-0.601-18.819,0.2-25.826
			c0,0-19.22-1.001-21.622-18.019c-2.403-17.018,2.803-26.828,9.61-39.04c6.807-12.212,12.813-26.827,20.821-31.032
			s27.828-6.407,27.828-6.407l2.002,8.208l14.815,78.48l5.406,19.22l8.409-0.601l14.214-65.267L166.957,115.37z"/>
		<path style="fill:#CCCCCC;" d="M151.942,220.206c-0.068,0-0.137-0.013-0.203-0.04c-0.269-0.112-0.397-0.422-0.285-0.691
			c0.241-0.579,23.926-57.543,25.394-61.377c0.02-0.312,0.062-1.783-0.742-3.23c-1.005-1.809-4.293-9.924-4.432-10.269
			c-0.061-0.151-0.049-0.322,0.033-0.463c0.082-0.141,0.224-0.237,0.386-0.259c1.182-0.161,4.482-0.778,5.534-1.679
			c0.254-0.344,0.555-2.995-0.046-10.634c-0.442-5.616-1.067-10.071-1.285-10.554c-0.119-0.262-0.01-0.579,0.25-0.703
			c0.259-0.125,0.568-0.025,0.697,0.233c0.384,0.769,1.037,6.364,1.406,11.106c0.806,10.377-0.022,11.086-0.333,11.353
			c-1.181,1.013-4.063,1.596-5.408,1.821c0.805,1.972,3.308,8.063,4.125,9.534c1.071,1.927,0.873,3.838,0.864,3.919
			c-0.005,0.043-0.015,0.086-0.031,0.127c-1.191,3.176-24.444,59.101-25.433,61.48C152.345,220.084,152.149,220.206,151.942,220.206
			z"/>
		<path style="fill:#CCCCCC;" d="M178.57,214.8c-0.042,0-0.086-0.005-0.128-0.016c-0.283-0.071-0.456-0.358-0.385-0.64
			c0.033-0.133,0.221-0.712,0.512-1.604c1.386-4.244,5.604-17.16,5.28-20.236c-0.394-3.744-1.982-13.086-1.997-13.18
			c-0.049-0.288,0.145-0.561,0.432-0.609c0.29-0.046,0.56,0.145,0.609,0.432c0.017,0.094,1.609,9.47,2.007,13.247
			c0.312,2.958-2.891,13.215-5.327,20.674c-0.278,0.853-0.46,1.406-0.492,1.532C179.022,214.64,178.807,214.8,178.57,214.8z"/>
		<path style="fill:#FFFFFF;" d="M140.931,215.673c0,0-8.609-54.055-10.01-63.065c-1.401-9.009-3.404-26.627-3.804-32.634
			c-0.4-6.006,0.2-12.212-0.601-12.413c-0.801-0.2-9.21,0.801-11.412,3.404c-2.202,2.603-9.81,23.024-10.21,25.226
			c-0.4,2.202,7.007,5.806,7.007,5.806s-3.003,11.212-3.604,14.415c-0.601,3.203,27.028,62.464,27.028,62.464L140.931,215.673z"/>
		<path style="fill:#CCCCCC;" d="M125.915,224.099c-0.23,0-0.442-0.151-0.508-0.383c-1.868-6.558-18.235-64.168-17.629-67.401
			c0.539-2.873,2.943-11.945,3.501-14.036c-1.868-0.942-7.32-3.902-6.905-6.182c0.387-2.133,7.994-22.716,10.326-25.472
			c0.188-0.222,0.522-0.251,0.745-0.062c0.223,0.188,0.251,0.522,0.062,0.744c-2.107,2.491-9.681,22.709-10.094,24.979
			c-0.203,1.116,3.33,3.587,6.719,5.236c0.227,0.111,0.345,0.367,0.279,0.612c-0.03,0.112-3.005,11.229-3.595,14.376
			c-0.424,2.26,10.297,41.256,17.607,66.916c0.08,0.281-0.083,0.573-0.363,0.653C126.012,224.093,125.963,224.099,125.915,224.099z"
			/>
		<path style="fill:#76D1F4;" d="M193.685,231.59h11.212c0,0-3.404-10.911-6.607-13.714c-3.203-2.803-11.512-6.006-15.216-6.607
			c-3.704-0.601-5.906-0.601-7.808,0.3c-1.902,0.901-1.602,2.703-1.602,2.703L193.685,231.59z"/>
		<ellipse style="fill:#D3F4FF;" cx="155.146" cy="222.316" rx="38.038" ry="9.674"/>
		<path style="fill:#76D1F4;" d="M193.184,225.92c0,5.343-17.03,9.674-38.038,9.674s-38.038-4.331-38.038-9.674v-3.604
			c0,5.343,17.03,9.674,38.038,9.674s38.038-4.331,38.038-9.674V225.92z"/>
		<path style="fill:#599DB7;" d="M193.184,225.92c0,5.343-17.03,9.674-38.038,9.674s-38.038-4.331-38.038-9.674v4.805
			c0,5.343,17.03,9.674,38.038,9.674s38.038-4.331,38.038-9.674V225.92z"/>
		<ellipse style="fill:#A553A5;" cx="142.958" cy="224.708" rx="4.58" ry="1.727"/>
		<path style="fill:#A553A5;" d="M165.556,219.377c0,1.161-2.723,2.102-6.081,2.102s-6.081-0.941-6.081-2.102
			s2.723-2.102,6.081-2.102S165.556,218.216,165.556,219.377z"/>
		<ellipse style="fill:#A553A5;" cx="175.842" cy="224.633" rx="5.781" ry="1.952"/>
		<path style="fill:#B3B3B3;" d="M166.757,151.055c0,1.41-2.824,2.553-6.307,2.553s-6.306-1.143-6.306-2.553
			c0-1.41,2.823-2.553,6.306-2.553S166.757,149.645,166.757,151.055z"/>
		<path style="fill:#333333;" d="M157.905,177.685c-0.593-0.104-1.145-0.243-1.639-0.414c-1.538-0.533-2.385-1.311-2.385-2.19h0.528
			c0,0.618,0.759,1.25,2.03,1.69c0.468,0.162,0.992,0.295,1.557,0.394L157.905,177.685z"/>
		<path style="fill:#333333;" d="M157.905,174.081c-0.593-0.104-1.145-0.243-1.639-0.414c-1.538-0.533-2.385-1.311-2.385-2.19h0.528
			c0,0.618,0.759,1.25,2.03,1.69c0.468,0.162,0.992,0.295,1.557,0.394L157.905,174.081z"/>
		<path style="fill:#FFFFFF;" d="M88.227,158.715c0,0,6.356-3.24,14.996-6.076c7.894-2.591,17.694-4.845,26.296-3.985
			c0,0,1.225,16.506,1.562,25.166c0.117,3.009,0.126,5.072-0.06,5.165c-0.3,0.15-14.715,19.37-30.932,24.025
			c-16.217,4.655-19.42,2.853-19.42,2.853L88.227,158.715z"/>
		<path style="fill:#CCCCCC;" d="M83.319,206.745c-2.034,0-2.761-0.337-2.909-0.421c-0.254-0.143-0.345-0.465-0.201-0.719
			c0.143-0.255,0.464-0.347,0.719-0.201c0.02,0.008,3.478,1.56,19.015-2.9c9.241-2.652,19.934-10.89,30.108-23.196
			c0.284-0.344,0.435-0.526,0.529-0.63c0.043-0.254,0.113-1.217-0.028-4.835c-0.011-0.292,0.216-0.537,0.507-0.549
			c0.288-0.023,0.537,0.216,0.548,0.507c0.194,4.985,0.048,5.429-0.272,5.616c-0.081,0.09-0.239,0.283-0.471,0.563
			c-10.309,12.468-21.187,20.827-30.631,23.538C91.098,206.141,86.039,206.745,83.319,206.745z M131.021,178.986h0.01H131.021z"/>
		<path style="fill:#CCCCCC;" d="M88.227,159.243c-0.192,0-0.378-0.105-0.471-0.288c-0.133-0.26-0.029-0.578,0.231-0.71
			c0.064-0.033,6.492-3.291,15.072-6.107c10.321-3.387,19.245-4.734,26.513-4.009c0.29,0.029,0.502,0.288,0.473,0.578
			c-0.029,0.291-0.286,0.503-0.578,0.473c-7.127-0.711-15.9,0.62-26.079,3.961c-8.498,2.789-14.858,6.012-14.921,6.044
			C88.39,159.225,88.308,159.243,88.227,159.243z"/>
		<path style="fill:#CCCCCC;" d="M121.41,188.674c-0.232,0-0.445-0.154-0.509-0.39c-2.187-8.018-3.988-37.417-3.745-38.145
			c0.092-0.277,0.39-0.427,0.668-0.334c0.252,0.084,0.398,0.339,0.353,0.592c-0.072,1.227,1.57,29.641,3.743,37.609
			c0.077,0.281-0.089,0.572-0.371,0.649C121.503,188.668,121.456,188.674,121.41,188.674z"/>
		<ellipse style="fill:#CCCCCC;" cx="121.486" cy="153.76" rx="0.976" ry="1.952"/>
		<path style="fill:#E6E6E6;" d="M166.757,151.055c0,1.41-2.824,2.553-6.307,2.553s-6.306-1.143-6.306-2.553v40.844
			c0,0.777,0.857,1.472,2.208,1.94c1.102,0.382,2.534,0.612,4.098,0.612c3.483,0,6.307-1.143,6.307-2.553V151.055z"/>
		<path style="fill:#B3B3B3;" d="M162.553,204.992c-0.611,0.183-1.239,0.221-1.802,0.192c-1.099-0.057-1.952-0.371-1.952-0.371
			l0.976,9.434c0,0,0.826,0.449,1.802-0.09L162.553,204.992z"/>
		<g>
			<path style="fill:#FFFFFF;" d="M160.451,188.841c-0.892,0-1.757-0.072-2.569-0.215c-0.6-0.105-1.158-0.246-1.66-0.419
				c-1.596-0.553-2.475-1.375-2.475-2.315h0.793c0,0.559,0.726,1.145,1.941,1.566c0.462,0.16,0.979,0.29,1.537,0.389
				c0.768,0.134,1.586,0.202,2.432,0.202V188.841z"/>
			<path style="fill:#FFFFFF;" d="M157.882,185.023c-0.6-0.105-1.158-0.247-1.66-0.42c-1.596-0.553-2.475-1.375-2.475-2.315h0.793
				c0,0.559,0.726,1.145,1.941,1.566c0.462,0.16,0.979,0.29,1.537,0.388L157.882,185.023z"/>
			<path style="fill:#FFFFFF;" d="M157.882,181.419c-0.599-0.105-1.157-0.246-1.66-0.419c-1.596-0.553-2.475-1.376-2.475-2.315
				h0.793c0,0.559,0.726,1.145,1.942,1.565c0.462,0.16,0.979,0.29,1.536,0.387L157.882,181.419z"/>
		</g>
		<path style="fill:#E6E6E6;" d="M159.25,145.501l0.15,5.706c0,0,1.201,0.901,2.853,0l-0.15-5.856L159.25,145.501z"/>
		<path style="fill:#B3B3B3;" d="M154.144,141.444c0,1.41,2.823,2.553,6.306,2.553s6.307-1.143,6.307-2.553v2.403
			c0,1.41-2.824,2.553-6.307,2.553s-6.306-1.143-6.306-2.553V141.444z"/>
		<ellipse style="fill:#E6E6E6;" cx="160.451" cy="141.444" rx="6.306" ry="2.553"/>
		<path style="fill:#B46D4F;" d="M129.219,174.731c0,0,7.408-6.006,7.808-6.707c0.4-0.701-3.103-17.118-3.103-17.118
			s-5.005,1.201-6.307,1.301S129.219,174.731,129.219,174.731z"/>
		<path style="fill:#76D1F4;" d="M132.822,150.644c0,0,3.341,23.849,4.263,23.849s2.419-2.65,3.456-3.226
			c1.037-0.576-0.23,0.922,1.383,1.843c1.613,0.922,2.995-0.23,3.687,0.691c0.691,0.922,6.567,4.839,13.71,3.687
			c7.143-1.152,11.521-4.954,12.673-6.222c1.152-1.267,2.88-5.645,2.765-7.834c-0.115-2.189-0.922-2.65-0.922-2.65
			s0.922-1.037,0.806-3.341c-0.115-2.304-0.806-4.954-1.383-5.3c-0.576-0.346-0.576-0.346-0.576-0.346s1.843-2.765,1.152-4.954
			c-0.691-2.189-5.3-4.155-6.798-2.596c0,0,1.152,2.711-1.267,3.748c-2.419,1.037-11.176,0.576-11.752-0.23
			c-0.576-0.807-0.346-3.917,0.691-4.724c1.037-0.807,1.728-1.843,4.378-1.843c2.65,0,7.604,1.037,9.102-1.728
			c1.498-2.765,0.922-4.724-0.807-5.185c-1.728-0.461-4.839-1.613-7.374-1.959c-2.535-0.346-7.835-1.498-12.904,5.53
			C142.039,144.884,133.859,150.76,132.822,150.644z"/>
		<g>
			<path style="fill:#599DB7;" d="M165.428,157.838c-0.167,0-0.322-0.106-0.377-0.273c-0.068-0.208,0.046-0.432,0.254-0.499
				c0.048-0.016,4.837-1.611,6.808-5.007c0.11-0.188,0.353-0.253,0.542-0.143c0.189,0.11,0.253,0.352,0.143,0.542
				c-2.125,3.661-7.04,5.295-7.248,5.362C165.51,157.832,165.468,157.838,165.428,157.838z"/>
			<path style="fill:#599DB7;" d="M167.271,165.212c-0.181,0-0.345-0.125-0.386-0.309c-0.048-0.214,0.086-0.426,0.299-0.474
				c0.044-0.01,4.477-1.04,6.322-3.862c0.12-0.183,0.365-0.236,0.549-0.115c0.183,0.12,0.235,0.365,0.115,0.548
				c-2.024,3.095-6.617,4.158-6.812,4.202C167.329,165.208,167.3,165.212,167.271,165.212z"/>
		</g>
		<path style="fill:#CCCCCC;" d="M166.757,191.899c0,1.41-2.824,2.553-6.307,2.553c-1.565,0-2.996-0.231-4.098-0.612
			c-1.352-0.468-2.208-1.164-2.208-1.94l4.655,12.913c0,0,0.853,0.262,1.952,0.31c0.563,0.025,1.191-0.007,1.802-0.16
			L166.757,191.899z"/>
	</g>
</g>
</svg>
